<svg width="18" height="19" viewBox="0 0 18 19" fill="none" xmlns="http://www.w3.org/2000/svg">
<path d="M16.4093 10.826C15.9311 14.6693 13.1212 14.9084 12.6088 15.0707C12.3867 15.139 10.337 15.6514 7.76625 15.4806C7.76625 15.4806 5.84461 17.7951 5.24677 18.4015C5.15282 18.4954 5.0418 18.5296 4.97347 18.5125C4.87098 18.4869 4.84536 18.3673 4.84536 18.188C4.84536 17.9318 4.86244 15.028 4.86244 15.028C1.11312 13.986 1.32663 10.0744 1.36934 8.02466C1.41204 5.97492 1.79637 4.29242 2.94081 3.16506C4.99909 1.3032 9.22669 1.58505 9.22669 1.58505C12.8052 1.60213 14.5133 2.67824 14.9147 3.03695C16.23 4.15577 16.9047 6.86314 16.4093 10.826Z" fill="white"/>
<path d="M9.37201 6.12844C9.36347 6.25655 9.46596 6.37612 9.59406 6.38466C10.3713 6.42736 10.7556 6.82023 10.7983 7.63159C10.8068 7.7597 10.9093 7.86219 11.0374 7.86219H11.046C11.1741 7.85364 11.2766 7.74262 11.268 7.61451C11.2168 6.55547 10.6446 5.96617 9.61115 5.91493C9.49158 5.89785 9.38055 6.00033 9.37201 6.12844ZM11.5157 10.0486C11.1143 9.82653 10.7043 9.96317 10.5335 10.1852L10.1748 10.6293C9.99547 10.8514 9.66239 10.8258 9.66239 10.8258C7.2027 10.2023 6.55361 7.717 6.55361 7.717C6.55361 7.717 6.52799 7.38391 6.75004 7.20456L7.19416 6.85439C7.41621 6.68358 7.55286 6.27363 7.3308 5.87223C6.94648 5.19752 6.40842 4.48011 6.11804 4.18119C5.89598 3.92497 5.57998 3.85664 5.23836 4.03599H5.22982C4.90527 4.21535 4.60635 4.46302 4.32451 4.77049C4.32451 4.77049 4.32451 4.77048 4.31597 4.77903C4.02559 5.12065 3.85478 5.52206 3.99997 5.94909L4.00851 5.95763C4.3843 7.28996 5.74225 9.78382 7.66389 11.2955C8.83395 12.2264 10.6702 13.1659 11.4388 13.3794L11.4474 13.388C11.8744 13.5246 12.2758 13.3623 12.6174 13.072C12.6174 13.072 12.6174 13.072 12.626 13.0634C12.9334 12.7816 13.1811 12.4827 13.3605 12.1581V12.1496C13.5398 11.8079 13.48 11.4834 13.2153 11.2699C12.737 10.8172 12.0452 10.3475 11.5157 10.0486ZM12.0281 8.02446C12.0281 8.15257 12.1306 8.26359 12.2587 8.27213H12.2673C12.3954 8.27213 12.5064 8.16965 12.5064 8.04154C12.5235 7.11061 12.2417 6.31634 11.6694 5.68433C11.0972 5.05233 10.2859 4.70216 9.26952 4.62529C9.14141 4.61675 9.02184 4.7107 9.0133 4.84735C9.00476 4.97546 9.09871 5.09503 9.23536 5.10357C10.1407 5.17189 10.8239 5.46228 11.3193 6.00887C11.8146 6.54693 12.0452 7.2131 12.0281 8.02446ZM8.83395 3.37837C8.70584 3.37837 8.59481 3.48086 8.59481 3.61751C8.59481 3.74562 8.6973 3.85664 8.83395 3.85664C10.098 3.86518 11.1655 4.28367 12.0025 5.11211C12.848 5.93201 13.2751 7.08499 13.2921 8.51981C13.2921 8.64792 13.4032 8.75895 13.5313 8.75895C13.6594 8.75895 13.7704 8.64792 13.7704 8.51981C13.7619 6.94834 13.2751 5.68433 12.3356 4.77049C11.3961 3.85664 10.2175 3.39545 8.83395 3.37837ZM15.897 1.84106C15.4273 1.40549 13.5313 0.0304503 9.30368 0.0133691C9.30368 0.0133691 4.31597 -0.285553 1.89044 1.94354C0.541023 3.29296 0.0627494 5.27438 0.0115057 7.73408C-0.0397379 10.1938 -0.108063 14.7886 4.33305 16.0355C4.33305 16.0355 4.33305 16.0355 4.34159 16.0355V17.9401C4.34159 17.9401 4.31597 18.7088 4.81987 18.871C5.43479 19.0589 5.7935 18.4782 6.3828 17.8462C6.70734 17.496 7.15145 16.9921 7.48454 16.5992C10.5165 16.8554 12.848 16.2747 13.1128 16.1807C13.7277 15.9843 17.1867 15.5402 17.7503 10.9368C18.3226 6.18823 17.46 3.19047 15.897 1.84106ZM16.4095 10.5952C15.9312 14.4385 13.1213 14.6776 12.6089 14.8399C12.3868 14.9082 10.3371 15.4206 7.76638 15.2498C7.76638 15.2498 5.84474 17.5643 5.2469 18.1707C5.15295 18.2646 5.04192 18.2988 4.9736 18.2817C4.87111 18.2561 4.84549 18.1365 4.84549 17.9572C4.84549 17.701 4.86257 14.7972 4.86257 14.7972C1.11324 13.7552 1.32676 9.84361 1.36946 7.79386C1.41217 5.74412 1.79649 4.06161 2.94093 2.93425C4.99922 1.0724 9.22682 1.35424 9.22682 1.35424C12.8053 1.37133 14.5135 2.44744 14.9149 2.80615C16.2301 3.92497 16.9048 6.63234 16.4095 10.5952Z" fill="#7C3FAD"/>
</svg>
