<svg width="19" height="19" viewBox="0 0 19 19" fill="none" xmlns="http://www.w3.org/2000/svg">
<path d="M15.2072 13.5285C14.9766 14.1862 13.8493 14.784 13.3112 14.8609C12.8244 14.9292 12.218 14.9634 11.5433 14.7499C11.1334 14.6217 10.6124 14.4509 9.94621 14.1606C7.12781 12.9478 5.29158 10.1038 5.14639 9.91587C5.00974 9.72798 4.00195 8.39564 4.00195 7.01207C4.00195 5.62849 4.7279 4.95378 4.98412 4.67194C5.24034 4.3901 5.5478 4.32178 5.7357 4.32178C5.92359 4.32178 6.11148 4.32178 6.27375 4.33032C6.44457 4.33886 6.67516 4.26199 6.90576 4.80859C7.13635 5.37227 7.70004 6.75585 7.76836 6.8925C7.83668 7.02915 7.88793 7.19996 7.79398 7.38785C7.70003 7.57575 7.65733 7.69532 7.51214 7.85759C7.37549 8.01986 7.21322 8.22483 7.09365 8.35294C6.957 8.48959 6.80327 8.64332 6.97408 8.92516C7.13635 9.207 7.70003 10.1294 8.53701 10.8724C9.61313 11.829 10.5184 12.1279 10.8003 12.2645C11.0821 12.4012 11.2444 12.3841 11.4067 12.1962C11.5689 12.0083 12.107 11.3763 12.2949 11.0945C12.4828 10.8126 12.6707 10.8639 12.9269 10.9493C13.1831 11.0432 14.5667 11.7265 14.8485 11.8631C15.1304 12.0083 15.3183 12.0766 15.3866 12.1877C15.4378 12.3072 15.4378 12.8709 15.2072 13.5285Z" fill="white"/>
<path d="M16.2754 2.95541C14.5246 1.20458 12.1844 0.230957 9.69912 0.230957C4.57476 0.230957 0.406944 4.39877 0.406944 9.52314C0.406944 11.1629 0.833975 12.76 1.64533 14.1692L0.330078 18.9861L5.25801 17.6965C6.61596 18.4395 8.14473 18.8239 9.70767 18.8239C14.832 18.8239 18.9998 14.656 18.9998 9.53168C18.9998 7.0549 18.0348 4.71477 16.2754 2.95541ZM15.2078 13.5287C14.9772 14.1863 13.8499 14.7841 13.3118 14.861C12.825 14.9293 12.2186 14.9635 11.5439 14.75C11.1339 14.6219 10.613 14.4511 9.9468 14.1607C7.1284 12.9479 5.29217 10.1039 5.14698 9.916C5.01033 9.72811 4.00254 8.39577 4.00254 7.0122C4.00254 5.62862 4.72849 4.95391 4.98471 4.67207C5.24093 4.39023 5.54839 4.32191 5.73628 4.32191C5.92418 4.32191 6.11207 4.32191 6.27434 4.33045C6.44515 4.33899 6.67575 4.26212 6.90634 4.80872C7.13694 5.3724 7.70062 6.75598 7.76895 6.89263C7.83727 7.02928 7.88852 7.20009 7.79457 7.38799C7.70062 7.57588 7.65792 7.69545 7.51273 7.85772C7.37608 8.01999 7.21381 8.22496 7.09424 8.35307C6.95759 8.48972 6.80386 8.64345 6.97467 8.92529C7.13694 9.20713 7.70062 10.1295 8.5376 10.8726C9.61372 11.8291 10.519 12.128 10.8009 12.2647C11.0827 12.4013 11.245 12.3842 11.4072 12.1963C11.5695 12.0085 12.1076 11.3764 12.2955 11.0946C12.4834 10.8128 12.6713 10.864 12.9275 10.9494C13.1837 11.0434 14.5673 11.7266 14.8491 11.8633C15.1309 12.0085 15.3188 12.0768 15.3872 12.1878C15.4384 12.3074 15.4384 12.8711 15.2078 13.5287Z" fill="#39B54A"/>
</svg>
