<svg width="39" height="39" viewBox="0 0 39 39" fill="none" xmlns="http://www.w3.org/2000/svg">
<path d="M19.6816 25.4328C19.1564 25.4333 18.6529 25.6422 18.2816 26.0135C17.9102 26.3848 17.7014 26.8884 17.7009 27.4135C17.7015 27.9386 17.9104 28.442 18.2817 28.8132C18.6531 29.1845 19.1565 29.3932 19.6816 29.3938C20.2066 29.3931 20.7099 29.1843 21.0811 28.813C21.4524 28.4418 21.6612 27.9385 21.6618 27.4135C21.6613 26.8884 21.4525 26.385 21.0813 26.0137C20.7101 25.6423 20.2067 25.4334 19.6816 25.4328ZM19.6816 27.8703C19.563 27.8664 19.4505 27.8166 19.3679 27.7313C19.2854 27.646 19.2392 27.532 19.2392 27.4133C19.2392 27.2946 19.2854 27.1805 19.3679 27.0953C19.4505 27.01 19.563 26.9601 19.6816 26.9562C19.8002 26.9601 19.9127 27.01 19.9953 27.0953C20.0778 27.1805 20.1239 27.2946 20.1239 27.4133C20.1239 27.532 20.0778 27.646 19.9953 27.7313C19.9127 27.8166 19.8002 27.8664 19.6816 27.8703ZM14.6442 22.9085C14.5011 22.7662 14.3078 22.686 14.106 22.6852C13.9041 22.6857 13.7105 22.7662 13.5678 22.909C13.425 23.0518 13.3445 23.2453 13.344 23.4472C13.3447 23.649 13.4252 23.8424 13.5679 23.9851C13.7107 24.1278 13.9041 24.2082 14.106 24.2087C14.3059 24.2087 14.5028 24.1273 14.6442 23.9854C14.7856 23.844 14.8675 23.6476 14.8675 23.4472C14.8675 23.2468 14.7861 23.0504 14.6442 22.9085Z" fill="#2E6E85"/>
<path d="M35.1906 10.9676H34.3697L23.625 0.223033C23.3277 -0.0743442 22.845 -0.0743442 22.5476 0.223033L19.7952 2.97548L8.78632 0.0260814C8.68968 0.000134997 8.58888 -0.00651084 8.48967 0.00652381C8.39046 0.0195585 8.29479 0.052018 8.20814 0.102047C8.12148 0.152076 8.04553 0.218693 7.98464 0.298091C7.92374 0.377488 7.87909 0.468109 7.85324 0.564772L5.06616 10.9676H3.19902C2.76852 10.9683 2.34258 11.0557 1.94664 11.2247C1.5507 11.3937 1.1929 11.6408 0.894604 11.9512C0.59631 12.2616 0.363651 12.6289 0.210529 13.0313C0.0574075 13.4336 -0.0130346 13.8627 0.00341254 14.2929C0.00139081 14.3139 0.000252299 14.3351 0 14.3562V35.1916C0 37.2913 1.70871 39 3.8084 39H31.078L31.1131 38.999H35.1911C37.2913 38.999 39 37.2908 39 35.1907V14.776C39 12.6758 37.2908 10.9676 35.1906 10.9676ZM34.5101 12.491H35.1906C35.7965 12.4917 36.3773 12.7326 36.8058 13.161C37.2342 13.5893 37.4753 14.1701 37.4761 14.776V20.881C37.4755 21.3596 37.2852 21.8185 36.9467 22.1569C36.6083 22.4953 36.1494 22.6857 35.6708 22.6862H34.8859V19.651C34.8859 17.5772 33.2201 15.887 31.1565 15.8441L34.5101 12.491ZM23.0868 1.83862L33.0476 11.7998L29.029 15.8178H27.6362L29.459 13.9945C29.7564 13.6971 29.7564 13.215 29.459 12.9176C29.1629 12.6209 28.9966 12.2188 28.9966 11.7995C28.9966 11.3803 29.1629 10.9782 29.459 10.6814C29.7564 10.3841 29.7564 9.90143 29.459 9.60405L25.2826 5.42762C24.9852 5.13024 24.5025 5.13024 24.2052 5.42762C23.9084 5.72388 23.5062 5.89028 23.0868 5.89028C22.6675 5.89028 22.2653 5.72388 21.9685 5.42762C21.6711 5.13024 21.1885 5.13024 20.8911 5.42762L10.5014 15.8178H9.10808L23.0868 1.83862ZM18.32 12.9561C16.5811 12.9561 15.1239 14.1837 14.769 15.8178H12.6552L21.4966 6.9769C21.9778 7.26246 22.527 7.41315 23.0866 7.41315C23.6461 7.41315 24.1954 7.26246 24.6766 6.9769L27.9092 10.2095C27.6237 10.6908 27.4731 11.24 27.4731 11.7995C27.4731 12.3591 27.6237 12.9083 27.9092 13.3895L25.4815 15.8178H21.871C21.5156 14.1837 20.0589 12.9561 18.32 12.9561ZM20.2842 15.8178H16.3553C16.5109 15.4236 16.7814 15.0852 17.1316 14.8466C17.4818 14.6079 17.8957 14.4801 18.3195 14.4796C18.7433 14.4801 19.1572 14.6079 19.5074 14.8466C19.8577 15.0852 20.1286 15.4236 20.2842 15.8178ZM8.30174 14.4684L10.319 6.93985C10.879 6.94827 11.4308 6.80419 11.9151 6.52304C12.4009 6.2442 12.8017 5.83839 13.0744 5.34913L16.5026 6.26807L8.30174 14.4684ZM9.12758 1.6948L18.5511 4.21958L17.7467 5.02396L12.8234 3.70478C12.7267 3.67883 12.6259 3.67219 12.5267 3.68522C12.4275 3.69826 12.3318 3.73072 12.2452 3.78075C12.1585 3.83077 12.0826 3.89739 12.0217 3.97679C11.9608 4.05619 11.9161 4.14681 11.8903 4.24347C11.8371 4.44429 11.7446 4.63257 11.6181 4.79741C11.4917 4.96226 11.3338 5.1004 11.1537 5.20385C10.974 5.30824 10.7754 5.37595 10.5694 5.40306C10.3633 5.43017 10.154 5.41615 9.95341 5.3618C9.8568 5.33593 9.75605 5.32934 9.65689 5.34241C9.55774 5.35548 9.46213 5.38795 9.37553 5.43798C9.28893 5.488 9.21303 5.55459 9.15217 5.63395C9.0913 5.71331 9.04667 5.80388 9.02081 5.90049L6.35659 15.8426H5.33624L9.12758 1.6948ZM3.19902 12.491H4.65763L3.75965 15.8426H3.19902C2.7547 15.8421 2.32874 15.6654 2.01461 15.3511C1.70048 15.0369 1.52384 14.6109 1.52346 14.1666C1.5241 13.7224 1.70084 13.2966 2.01493 12.9825C2.32902 12.6684 2.75483 12.4917 3.19902 12.491ZM37.4756 35.1907C37.4748 35.7964 37.2338 36.3771 36.8055 36.8055C36.3771 37.2338 35.7964 37.4748 35.1906 37.4756H34.123C34.6191 36.8176 34.8872 36.0157 34.8864 35.1916V32.1311H35.3432C36.109 32.1317 36.8555 31.8904 37.4761 31.4418L37.4756 35.1907ZM37.4756 28.4748C37.4749 29.0402 37.2501 29.5822 36.8503 29.9821C36.4506 30.3819 35.9086 30.6069 35.3432 30.6076H19.3472C18.4991 30.6066 17.686 30.2692 17.0863 29.6695C16.4866 29.0698 16.1492 28.2568 16.1482 27.4086C16.1492 26.5605 16.4866 25.7475 17.0863 25.1478C17.686 24.548 18.4991 24.2107 19.3472 24.2096H21.656C21.8547 24.2046 22.0435 24.1222 22.1823 23.9799C22.321 23.8376 22.3987 23.6467 22.3987 23.4479C22.3987 23.2492 22.321 23.0583 22.1823 22.916C22.0435 22.7737 21.8547 22.6912 21.656 22.6862H19.3472C16.7434 22.6862 14.6247 24.8044 14.6247 27.4086C14.6247 30.0124 16.7434 32.1311 19.3472 32.1311H33.363V35.1916C33.3622 35.7913 33.126 36.3667 32.7052 36.7941C32.2844 37.2214 31.7127 37.4665 31.1131 37.4766H5.17975V28.8989C5.17473 28.7003 5.09227 28.5114 4.94996 28.3726C4.80766 28.2339 4.61677 28.1562 4.41802 28.1562C4.21927 28.1562 4.02839 28.2339 3.88609 28.3726C3.74378 28.5114 3.66132 28.7003 3.6563 28.8989V37.4707C3.07825 37.4316 2.53659 37.1745 2.14071 36.7515C1.74483 36.3285 1.52423 35.771 1.52346 35.1916V16.8908C2.01096 17.1916 2.58524 17.3656 3.19902 17.3656H31.078C31.6839 17.3664 32.2647 17.6074 32.693 18.0359C33.1214 18.4643 33.3623 19.0452 33.363 19.651V22.6862H27.8556C27.6569 22.6912 27.4681 22.7737 27.3293 22.916C27.1906 23.0583 27.1129 23.2492 27.1129 23.4479C27.1129 23.6467 27.1906 23.8376 27.3293 23.9799C27.4681 24.1222 27.6569 24.2046 27.8556 24.2096H35.6713C36.3121 24.2102 36.9393 24.0245 37.4765 23.6753V28.4748H37.4756Z" fill="#2E6E85"/>
<path d="M35.1199 25.3894C34.9767 25.247 34.7832 25.1668 34.5812 25.1661C34.3814 25.1661 34.1844 25.2475 34.043 25.3894C33.9017 25.5308 33.8198 25.7277 33.8198 25.9281C33.8198 26.128 33.9012 26.3249 34.043 26.4663C34.1844 26.6082 34.3814 26.6896 34.5817 26.6896C34.7816 26.6896 34.9786 26.6082 35.1199 26.4663C35.2613 26.3249 35.3432 26.1285 35.3432 25.9281C35.3432 25.7277 35.2618 25.5313 35.1199 25.3894Z" fill="#2E6E85"/>
</svg>
