<svg width="39" height="39" viewBox="0 0 39 39" fill="none" xmlns="http://www.w3.org/2000/svg">
<path d="M0.00509001 26.1712C0.903986 25.2621 1.79576 24.3469 2.70178 23.446C3.98955 22.1653 5.28852 20.8959 6.5824 19.6224C6.63636 19.5684 6.69133 19.5206 6.74427 19.4605C7.32453 18.8497 7.3286 18.8497 8.06767 19.3455V18.9169C8.06767 16.5178 8.06767 14.118 8.06767 11.7176C8.06767 11.5659 8.03204 11.3684 8.11043 11.2737C8.24277 11.1139 8.45349 10.9266 8.63164 10.9266C8.80979 10.9266 9.0195 11.117 9.14065 11.2788C9.22616 11.3888 9.2058 11.5934 9.20681 11.7563C9.20681 14.5629 9.21292 17.3685 9.20681 20.1751C9.20202 20.2992 9.22494 20.4228 9.27389 20.5369C9.32285 20.651 9.39661 20.7528 9.48982 20.8348C11.1339 22.4412 12.7658 24.0588 14.4068 25.6683C14.7122 25.9737 14.9616 26.2791 14.7824 26.7351C14.6032 27.1912 14.2225 27.2818 13.7878 27.2645C13.7497 27.2638 13.7117 27.2683 13.6748 27.2777C13.6392 27.2922 13.6051 27.3103 13.573 27.3317V27.7226C13.573 29.5761 13.573 31.4298 13.573 33.284C13.573 34.2887 13.064 34.8008 12.046 34.8059C11.1441 34.811 10.2431 34.811 9.34119 34.815C9.2992 34.8244 9.25827 34.8381 9.21903 34.8558C9.21903 35.4279 9.20885 36.0193 9.22921 36.6088C9.22921 36.6912 9.37173 36.794 9.47048 36.8398C9.55395 36.8795 9.66899 36.8521 9.77079 36.8521H27.1461V36.4123C27.1461 34.9871 27.1461 33.5646 27.1461 32.1448C27.1461 31.1034 27.6764 30.572 28.7138 30.571C30.0596 30.571 31.4057 30.571 32.7522 30.571H33.192V23.0927C32.9202 23.1324 32.6341 23.1589 32.3582 23.223C32.2778 23.2424 32.1964 23.3615 32.1628 23.4521C32.061 23.7361 31.9816 24.0324 31.8777 24.3184C31.7505 24.6696 31.4909 24.8142 31.1651 24.7256C30.8597 24.6452 30.7121 24.3632 30.7824 24.0008C30.8042 23.8887 30.8356 23.7787 30.876 23.672C31.0531 23.2088 31.1814 22.8057 30.7091 22.37C30.3161 22.0025 30.3619 21.4538 30.5268 20.9366C31.0928 19.1612 31.6416 17.3807 32.1964 15.6023C32.3552 15.0933 32.4906 14.5761 32.6809 14.0753C33.1227 12.9198 33.2469 11.7339 33.2286 10.5C33.1859 7.59263 33.2154 4.68419 33.2154 1.77576C33.2154 1.15376 33.2154 1.15376 32.6046 1.15172C32.4396 1.15887 32.2743 1.15479 32.1098 1.13951C31.778 1.09472 31.5683 0.851413 31.5927 0.543976C31.6202 0.218215 31.8105 0.0288665 32.1332 0.0135965C32.4754 -0.00745817 32.8187 -0.00405618 33.1604 0.0237765C33.8669 0.0940187 34.3535 0.705838 34.3555 1.50497C34.3555 3.70182 34.3555 5.89867 34.3555 8.09552V8.60452C34.7037 8.09552 35.0905 7.74838 35.6077 7.77994C36.097 7.804 36.577 7.9233 37.0207 8.13115C37.7669 8.5017 37.9114 9.20921 37.5724 10.3708C37.6681 10.4278 37.776 10.4878 37.8778 10.552C38.3184 10.8135 38.6586 11.2151 38.8442 11.6926C39.0299 12.1702 39.0502 12.6961 38.9019 13.1865C38.6281 14.1099 38.3308 15.0271 38.0377 15.9443C37.9053 16.3566 37.6386 16.5276 37.3118 16.4319C36.9606 16.3301 36.8201 16.0247 36.9474 15.6084C37.2284 14.6871 37.5246 13.7699 37.7995 12.8476C37.9644 12.2938 37.7536 11.8296 37.207 11.5313C36.869 12.6093 36.531 13.6803 36.1961 14.7522C35.626 16.5846 35.0519 18.4058 34.493 20.2362C34.4082 20.5131 34.364 20.8008 34.3617 21.0903C34.3522 24.3663 34.3522 27.6425 34.3617 30.9191C34.3683 31.1143 34.3338 31.3087 34.2605 31.4896C34.1872 31.6706 34.0767 31.8342 33.9361 31.9697C32.156 33.8001 30.3809 35.6338 28.611 37.471C28.4496 37.6478 28.2516 37.7873 28.0308 37.8796C27.8099 37.9719 27.5715 38.0149 27.3323 38.0055C21.4659 37.9926 15.5995 37.9892 9.73312 37.9953C9.51752 38.005 9.30153 37.989 9.08974 37.9474C8.79828 37.8713 8.54027 37.7008 8.35607 37.4624C8.17187 37.2241 8.07188 36.9314 8.07174 36.6301C8.06054 36.0377 8.07174 35.4442 8.07174 34.8028H7.61873C6.01843 34.8028 4.41847 34.8028 2.81885 34.8028C1.7815 34.8028 1.27861 34.2938 1.27759 33.2585C1.27759 31.4047 1.27149 29.5509 1.28268 27.6972C1.28268 27.3918 1.24909 27.2146 0.875482 27.2533C0.455047 27.2971 0.207672 27.0202 0 26.7005L0.00509001 26.1712ZM9.89193 33.6576C10.6381 33.6576 11.3232 33.6423 12.0063 33.6637C12.3494 33.6749 12.4369 33.5446 12.4349 33.2188C12.4227 31.3518 12.4288 29.4858 12.4278 27.6198C12.4278 27.5109 12.4115 27.4019 12.4033 27.294H2.42692V29.4522C2.42692 30.722 2.42692 31.9918 2.42692 33.2616C2.42692 33.4356 2.39129 33.6504 2.66106 33.6525C3.41743 33.6596 4.17483 33.6525 4.96174 33.6525V33.1954C4.96174 32.1031 4.96174 31.0108 4.96174 29.9195C4.96174 29.3087 5.30176 28.9137 5.86166 28.9015C6.90206 28.8831 7.94347 28.8862 8.98489 28.9015C9.46233 28.9086 9.79013 29.2191 9.86546 29.6914C9.88552 29.8552 9.89334 30.0202 9.88888 30.1852C9.89193 31.3253 9.89193 32.4645 9.89193 33.6555V33.6576ZM13.2106 26.103C11.2418 24.1606 9.34221 22.2885 7.42633 20.4022L1.64102 26.103H13.2106ZM8.71614 33.6362V30.0732H6.13347V33.6362H8.71614ZM28.2954 36.0132L28.3778 36.059L32.5924 31.7183C31.1946 31.7183 29.915 31.7183 28.6344 31.7183C28.4155 31.7183 28.2964 31.8048 28.2964 32.0237C28.2957 33.3539 28.2954 34.6837 28.2954 36.0132ZM34.5693 16.0929C34.61 15.9911 34.6487 15.9128 34.6711 15.8303C35.3077 13.7984 35.943 11.7658 36.5768 9.73247C36.7163 9.28556 36.6359 9.1573 36.1381 9.00052C35.6403 8.84375 35.4988 8.90687 35.3593 9.35072C35.02 10.4366 34.6806 11.5255 34.3413 12.6175C34.0216 13.6416 33.701 14.6657 33.3732 15.7112L34.5693 16.0929ZM34.2466 17.1995L33.025 16.8147C32.7603 17.6668 32.5079 18.4781 32.2493 19.3088L33.4648 19.6875C33.7315 18.8416 33.983 18.0394 34.2466 17.1965V17.1995ZM31.9052 20.4083C31.7881 20.7859 31.6609 21.0924 31.6069 21.412C31.5992 21.4935 31.6105 21.5757 31.6398 21.6522C31.6691 21.7287 31.7157 21.7973 31.7759 21.8528C31.9691 21.9706 32.1883 22.0388 32.4142 22.0513C32.4855 22.0485 32.555 22.0285 32.6168 21.993C32.6787 21.9576 32.731 21.9077 32.7695 21.8477C32.913 21.5169 33.0026 21.1636 33.1217 20.79L31.9052 20.4083Z" fill="#2E6E85"/>
<path d="M21.1877 9.29473C18.8897 9.29473 16.5917 9.29473 14.2938 9.29473C13.2014 9.29473 12.779 8.86818 12.779 7.76772C12.779 7.09482 12.7718 6.42192 12.779 5.74902C12.7902 4.93462 13.2819 4.45209 14.0963 4.45107C18.8334 4.45107 23.5695 4.45107 28.3045 4.45107C29.1596 4.45107 29.6442 4.9448 29.6483 5.80094C29.6483 6.51151 29.6483 7.22411 29.6483 7.93875C29.6483 8.81728 29.1719 9.29167 28.2709 9.29371C25.9112 9.2988 23.5494 9.29473 21.1877 9.29473ZM28.4857 5.62992H13.9517V8.11486H28.4857V5.62992Z" fill="#2E6E85"/>
<path d="M19.449 0.00850653H29.2381C29.3647 0.00493235 29.4915 0.00799054 29.6178 0.0176686C29.7469 0.0201033 29.8702 0.0715121 29.9628 0.161483C30.0555 0.251454 30.1104 0.373262 30.1166 0.502238C30.1522 0.807639 30.0199 1.03058 29.7216 1.11304C29.5485 1.15069 29.3712 1.16541 29.1943 1.15681C22.7334 1.15681 16.2714 1.15681 9.80847 1.15681C9.21497 1.15681 9.21497 1.15681 9.21497 1.7442C9.21497 4.04149 9.21497 6.33946 9.21497 8.63811C9.22216 8.79101 9.20603 8.94411 9.16712 9.09214C9.13715 9.21884 9.05976 9.32923 8.95089 9.40062C8.84201 9.47201 8.70992 9.49896 8.58177 9.47593C8.45311 9.47036 8.33094 9.4179 8.2383 9.32845C8.14566 9.23899 8.08895 9.11873 8.07888 8.99034C8.06829 8.88891 8.06489 8.78686 8.0687 8.68494C8.0687 6.32453 8.0687 3.96311 8.0687 1.60066C8.06972 0.537868 8.59603 0.0135965 9.66187 0.00850653C12.9249 0.00850653 16.1873 0.00850653 19.449 0.00850653Z" fill="#2E6E85"/>
<path d="M20.9434 27.12C21.4116 26.5814 21.8188 26.1162 22.223 25.6489C22.7167 25.0778 22.9743 25.0931 23.4731 25.6438C23.8278 26.0397 24.2157 26.4044 24.6326 26.7341C25.0795 27.0833 25.2709 27.0538 25.7198 26.7138C25.9631 26.5305 26.1912 26.3279 26.4324 26.1498C27.2 25.594 27.8271 25.6174 28.5173 26.2516C28.9764 26.6771 29.4569 26.7494 30.0138 26.4725C30.3629 26.2984 30.6826 26.3982 30.8282 26.6944C30.9737 26.9907 30.8546 27.2991 30.5228 27.4905C30.1002 27.7289 29.6131 27.8277 29.131 27.7729C28.649 27.718 28.1965 27.5123 27.8383 27.1851C27.4311 26.8257 27.4209 26.8258 26.9832 27.1678C26.7226 27.3714 26.4681 27.5801 26.1993 27.7705C25.5773 28.2092 24.9136 28.253 24.2743 27.8488C23.7653 27.5272 23.299 27.1362 22.792 26.7525C22.4632 27.121 22.1079 27.5282 21.7425 27.9272C21.5645 28.1254 21.3752 28.313 21.1755 28.4892C20.7428 28.8607 20.3 28.7589 20.0852 28.2275C19.9579 27.912 19.8816 27.577 19.7523 27.1647C19.5996 27.5781 19.4734 27.9272 19.3451 28.2744C19.1792 28.7141 18.888 28.8852 18.5439 28.7549C18.1998 28.6246 18.1103 28.3232 18.266 27.8906C18.6142 26.9255 18.9715 25.9635 19.3176 24.9984C19.4194 24.7063 19.5955 24.5006 19.9192 24.5149C20.2623 24.5291 20.4221 24.7633 20.4893 25.0799C20.6369 25.7365 20.7825 26.386 20.9434 27.12Z" fill="#2E6E85"/>
<path d="M27.9737 12.5992C28.1006 12.5932 28.2278 12.5959 28.3544 12.6073C28.6781 12.6521 28.8634 12.8588 28.8634 13.1733C28.8634 13.4716 28.6842 13.667 28.388 13.7332C28.3001 13.7462 28.211 13.7499 28.1223 13.7444H13.5374C13.4353 13.7526 13.3326 13.7472 13.232 13.7281C12.9429 13.6487 12.7729 13.4604 12.7851 13.1489C12.7973 12.8374 12.9734 12.6582 13.2737 12.6093C13.3998 12.5958 13.5268 12.5924 13.6534 12.5992H27.9737Z" fill="#2E6E85"/>
<path d="M20.8131 17.111C18.4017 17.111 15.9904 17.111 13.5791 17.111C13.4285 17.111 13.235 17.1384 13.1373 17.0601C12.9856 16.9369 12.8065 16.7312 12.8116 16.5653C12.8116 16.3821 12.9836 16.1673 13.1404 16.037C13.2422 15.9494 13.4539 15.9677 13.6158 15.9677C18.414 15.9677 23.2115 15.9677 28.0083 15.9677H28.16C28.5967 15.98 28.8675 16.2019 28.8726 16.547C28.8777 16.8921 28.611 17.111 28.161 17.111C25.7117 17.111 23.2624 17.111 20.8131 17.111Z" fill="#2E6E85"/>
<path d="M17.4923 19.1256C18.7984 19.1256 20.1045 19.1256 21.4106 19.1256C21.5939 19.1256 21.83 19.1388 21.9451 19.2477C22.0169 19.3199 22.0731 19.4062 22.1099 19.5012C22.1467 19.5962 22.1633 19.6977 22.1589 19.7995C22.1375 19.9563 21.9461 20.1222 21.7893 20.2199C21.6743 20.2912 21.4951 20.2698 21.3434 20.2698C18.7699 20.2698 16.1957 20.2698 13.6209 20.2698H13.5068C13.0304 20.2576 12.778 20.0499 12.7861 19.6763C12.7942 19.3027 13.0325 19.1225 13.4987 19.1205C14.8292 19.1225 16.1608 19.1256 17.4923 19.1256Z" fill="#2E6E85"/>
</svg>
