<svg width="39" height="39" viewBox="0 0 39 39" fill="none" xmlns="http://www.w3.org/2000/svg">
<path d="M11.7243 38.9914C11.0759 38.5691 10.8598 38.202 11.0392 37.6815C11.1208 37.4705 11.2452 37.2786 11.4044 37.1178C11.72 36.7777 12.0636 36.4623 12.3965 36.1373L12.3565 36.0444H11.9599C10.4621 36.0444 8.96324 36.0758 7.46762 36.0239C3.93172 35.9084 1.08096 33.5824 0.239129 30.143C0.105016 29.5499 0.0325877 28.9445 0.0229986 28.3364C-0.0126629 27.2339 0.000304929 26.1292 0.0143534 25.0256C0.0229986 24.206 0.651939 23.7006 1.36085 23.9198C1.81472 24.0602 2.08056 24.4371 2.08705 24.9997C2.09785 25.8636 2.09569 26.7275 2.08705 27.5913C2.08056 28.506 2.10326 29.412 2.42529 30.291C2.80755 31.3472 3.50021 32.2634 4.41251 32.9195C5.3248 33.5756 6.41417 33.941 7.53786 33.9679C9.13615 33.9949 10.7344 33.9679 12.4289 33.9679C12.176 33.7076 11.9739 33.4981 11.7697 33.2908C11.6098 33.1278 11.4455 32.9733 11.2877 32.8038C10.8771 32.3503 10.8836 31.738 11.2964 31.3352C11.4879 31.1449 11.7471 31.0381 12.0172 31.0381C12.2873 31.0381 12.5464 31.1449 12.738 31.3352C13.3864 31.9572 14.0175 32.6029 14.655 33.239C14.9965 33.5802 15.3456 33.9128 15.6752 34.2648C16.1139 34.7346 16.1182 35.3047 15.6752 35.7604C14.7228 36.728 13.7621 37.6869 12.7931 38.6372C12.6439 38.784 12.4386 38.8715 12.2528 38.987L11.7243 38.9914Z" fill="#2E6E85"/>
<path d="M39 14.2476C38.9737 14.2891 38.9502 14.3324 38.9298 14.3772C38.7266 14.9171 38.2954 15.2022 37.7951 15.1234C37.5453 15.0935 37.3158 14.9711 37.1519 14.7804C36.9881 14.5896 36.9017 14.3444 36.91 14.0932C36.8884 13.0133 36.8992 11.9335 36.9003 10.8536C36.9147 10.0659 36.7787 9.28271 36.4994 8.54597C35.6997 6.51368 33.6789 5.071 31.4981 5.0332C29.9376 5.00729 28.375 5.02457 26.8135 5.02349C26.754 5.02349 26.6957 5.0332 26.4958 5.05048C26.9561 5.48242 27.3506 5.83554 27.7147 6.21564C27.8685 6.37345 27.967 6.57685 27.9953 6.79531C28.0236 7.01377 27.9803 7.23552 27.8718 7.42728C27.7633 7.61905 27.5955 7.77048 27.3936 7.85887C27.1917 7.94725 26.9665 7.96782 26.7519 7.91749C26.5341 7.85533 26.3352 7.74033 26.1726 7.58274C25.2282 6.66054 24.2916 5.72863 23.3629 4.787C22.8486 4.26543 22.8496 3.69743 23.3629 3.18018C24.2901 2.2443 25.2227 1.30843 26.1608 0.372556C26.6384 -0.1015 27.2555 -0.122017 27.6834 0.304525C28.1113 0.731067 28.0919 1.34982 27.6261 1.82928C27.2846 2.17915 26.9313 2.51715 26.5822 2.86054L26.6233 2.94909H27.0242C28.5987 2.95557 30.1732 2.93397 31.7467 2.97392C35.1745 3.06031 38.3721 5.94244 38.8509 9.34506C38.8984 9.68197 38.9481 10.0189 38.9968 10.3569L39 14.2476Z" fill="#2E6E85"/>
<path d="M24.8283 38.9914C24.1983 38.6275 23.9584 38.2063 24.0946 37.702C24.1523 37.4803 24.2821 37.284 24.4637 37.1441C24.6452 37.0041 24.8681 36.9284 25.0974 36.9288C25.3233 36.9284 25.5431 37.0023 25.7228 37.1392C25.9025 37.2761 26.032 37.4684 26.0913 37.6862C26.1506 37.9041 26.1364 38.1354 26.0509 38.3444C25.9654 38.5534 25.8133 38.7284 25.6183 38.8423C25.534 38.8931 25.4475 38.9417 25.3622 38.9914H24.8283Z" fill="#2E6E85"/>
<path d="M29.0947 38.9914C28.7251 38.8045 28.4031 38.5756 28.3383 38.1275C28.3078 37.9444 28.3274 37.7566 28.3951 37.5838C28.4627 37.4109 28.5759 37.2596 28.7225 37.1458C28.8692 37.032 29.044 36.96 29.2283 36.9373C29.4126 36.9146 29.5996 36.9421 29.7695 37.0169C29.9394 37.0918 30.0859 37.2111 30.1935 37.3624C30.3011 37.5136 30.3658 37.6911 30.3807 37.8761C30.3956 38.061 30.3602 38.2466 30.2782 38.4131C30.1962 38.5795 30.0707 38.7208 29.9149 38.8218C29.8231 38.8834 29.7258 38.9374 29.6318 38.9946L29.0947 38.9914Z" fill="#2E6E85"/>
<path d="M20.5619 38.9914C20.0886 38.7354 19.746 38.391 19.8335 37.8035C19.8661 37.5704 19.9796 37.3562 20.1542 37.1982C20.3288 37.0403 20.5535 36.9488 20.7888 36.9396C21.026 36.9274 21.2601 36.9976 21.4515 37.1382C21.6428 37.2789 21.7795 37.4814 21.8384 37.7113C21.8973 37.9412 21.8748 38.1844 21.7747 38.3996C21.6746 38.6148 21.503 38.7888 21.2892 38.892C21.2233 38.9255 21.1584 38.9611 21.0936 39L20.5619 38.9914Z" fill="#2E6E85"/>
<path d="M37.6287 38.9914C37.1575 38.8013 36.8376 38.4903 36.8311 37.9504C36.8306 37.7073 36.9168 37.472 37.0743 37.2868C37.2317 37.1015 37.4501 36.9784 37.6903 36.9396C37.9243 36.907 38.1626 36.953 38.3677 37.0702C38.5729 37.1875 38.7333 37.3694 38.8239 37.5876C38.9137 37.8205 38.9157 38.0781 38.8294 38.3124C38.7431 38.5467 38.5744 38.7416 38.3549 38.8607C38.2673 38.9093 38.1755 38.9503 38.0858 38.9946L37.6287 38.9914Z" fill="#2E6E85"/>
<path d="M33.3622 38.9914C32.998 38.8197 32.6836 38.6026 32.5993 38.1707C32.5602 37.9863 32.5726 37.7948 32.6351 37.617C32.6977 37.4392 32.8079 37.282 32.9538 37.1625C33.0997 37.0431 33.2756 36.966 33.4623 36.9398C33.6491 36.9135 33.8395 36.939 34.0127 37.0136C34.1859 37.0881 34.3353 37.2088 34.4445 37.3624C34.5537 37.5161 34.6185 37.6968 34.6319 37.8847C34.6453 38.0727 34.6068 38.2607 34.5204 38.4283C34.4341 38.5959 34.3034 38.7365 34.1425 38.8348L33.895 38.9914H33.3622Z" fill="#2E6E85"/>
<path d="M9.6311 19.0789H1.44515C0.442302 19.0789 0.0900088 18.7279 0.0900088 17.7312V1.36602C0.0900088 0.366077 0.445544 0.00864578 1.43542 0.00864578H17.8473C18.8199 0.00864578 19.1819 0.370397 19.1819 1.33687V17.7398C19.1819 18.7117 18.8242 19.0767 17.8559 19.0767C15.1147 19.0796 12.3731 19.0803 9.6311 19.0789ZM2.19944 2.096V16.9839H17.0822V2.096H2.19944Z" fill="#2E6E85"/>
<path d="M20.8428 19.9363C20.9789 19.933 21.1143 19.9574 21.2407 20.0079C21.3671 20.0583 21.4819 20.1339 21.5783 20.23C21.6746 20.3261 21.7505 20.4407 21.8013 20.5669C21.8521 20.6931 21.8767 20.8283 21.8738 20.9643C21.8742 21.1003 21.8477 21.2351 21.7956 21.3609C21.7436 21.4866 21.6671 21.6007 21.5706 21.6968C21.4742 21.7928 21.3596 21.8687 21.2335 21.9202C21.1075 21.9716 20.9725 21.9976 20.8364 21.9966C20.568 21.9888 20.3127 21.879 20.1225 21.6896C19.9324 21.5001 19.8217 21.2454 19.813 20.9772C19.8116 20.8411 19.8371 20.7061 19.8882 20.5799C19.9393 20.4538 20.015 20.339 20.1107 20.2422C20.2065 20.1454 20.3205 20.0685 20.4461 20.016C20.5718 19.9635 20.7066 19.9364 20.8428 19.9363Z" fill="#2E6E85"/>
<path d="M32.5809 20.9459C32.5809 20.8125 32.6074 20.6803 32.6589 20.5572C32.7103 20.434 32.7857 20.3223 32.8807 20.2285C32.9757 20.1347 33.0884 20.0607 33.2122 20.0107C33.3361 19.9607 33.4686 19.9358 33.6021 19.9373C33.7389 19.9366 33.8745 19.963 34.0011 20.0151C34.1276 20.0671 34.2425 20.1437 34.3392 20.2404C34.4359 20.3371 34.5124 20.452 34.5644 20.5785C34.6163 20.705 34.6426 20.8405 34.6417 20.9772C34.6319 21.2465 34.5197 21.5019 34.3279 21.6913C34.1361 21.8807 33.8793 21.9899 33.6097 21.9966C33.4729 21.9958 33.3377 21.9679 33.2117 21.9145C33.0858 21.8611 32.9717 21.7833 32.8761 21.6856C32.7804 21.5879 32.7051 21.4723 32.6544 21.3453C32.6037 21.2183 32.5788 21.0826 32.5809 20.9459Z" fill="#2E6E85"/>
<path d="M20.8439 26.2275C20.5746 26.2262 20.3163 26.12 20.124 25.9314C19.9317 25.7429 19.8205 25.4869 19.8141 25.2178C19.8157 24.9418 19.9255 24.6774 20.1198 24.4813C20.3141 24.2851 20.5775 24.1727 20.8537 24.1682C20.9903 24.1703 21.1252 24.1994 21.2506 24.2538C21.3759 24.3082 21.4893 24.3869 21.5841 24.4852C21.6789 24.5836 21.7533 24.6997 21.803 24.8269C21.8528 24.9541 21.8768 25.0899 21.8738 25.2265C21.8727 25.36 21.8451 25.4919 21.7926 25.6147C21.7401 25.7375 21.6637 25.8487 21.568 25.9418C21.4722 26.0349 21.3589 26.108 21.2346 26.1571C21.1103 26.2061 20.9775 26.2301 20.8439 26.2275Z" fill="#2E6E85"/>
<path d="M38.8941 33.7001C38.8918 33.9743 38.7811 34.2365 38.5862 34.4294C38.3912 34.6224 38.1278 34.7306 37.8534 34.7303C37.7182 34.7307 37.5842 34.7045 37.4591 34.6532C37.334 34.6018 37.2202 34.5264 37.1243 34.4311C36.9305 34.2387 36.8212 33.9773 36.8203 33.7044C36.8195 33.4315 36.9271 33.1694 37.1197 32.9758C37.3122 32.7822 37.5738 32.6729 37.847 32.6721C38.1216 32.6717 38.3854 32.7794 38.5813 32.9717C38.7772 33.164 38.8896 33.4257 38.8941 33.7001Z" fill="#2E6E85"/>
<path d="M30.384 20.9459C30.3834 21.2218 30.2746 21.4865 30.0807 21.683C29.8869 21.8795 29.6237 21.9921 29.3476 21.9966C29.0782 21.9919 28.8211 21.8831 28.6303 21.6931C28.4395 21.503 28.3298 21.2464 28.3242 20.9772C28.3201 20.7043 28.4246 20.4409 28.6148 20.245C28.805 20.049 29.0653 19.9366 29.3384 19.9325C29.6116 19.9283 29.8752 20.0328 30.0712 20.2228C30.2673 20.4129 30.3798 20.673 30.384 20.9459Z" fill="#2E6E85"/>
<path d="M21.8749 29.439C21.8791 29.5749 21.8558 29.7102 21.8064 29.8369C21.7569 29.9635 21.6824 30.0789 21.5872 30.176C21.492 30.2731 21.3782 30.35 21.2525 30.4021C21.1268 30.4541 20.9919 30.4803 20.8558 30.4789C20.5815 30.4806 20.3177 30.3736 20.1223 30.1813C19.9268 29.989 19.8156 29.7271 19.813 29.453C19.8193 29.1851 19.9271 28.9295 20.1146 28.7379C20.3022 28.5463 20.5555 28.4329 20.8234 28.4207C21.0979 28.4166 21.3628 28.5216 21.5599 28.7125C21.7571 28.9034 21.8703 29.1647 21.8749 29.439Z" fill="#2E6E85"/>
<path d="M38.8941 29.4444C38.8948 29.7138 38.79 29.9727 38.6023 30.166C38.4145 30.3593 38.1586 30.4716 37.8891 30.4789C37.7525 30.4838 37.6163 30.4613 37.4886 30.4127C37.3609 30.3641 37.2442 30.2904 37.1454 30.196C37.0467 30.1015 36.9679 29.9883 36.9138 29.8629C36.8596 29.7375 36.8311 29.6025 36.8301 29.466C36.829 29.1964 36.9325 28.9368 37.1189 28.7419C37.3053 28.547 37.5601 28.4319 37.8297 28.4207C38.106 28.4177 38.3724 28.5234 38.5715 28.7149C38.7706 28.9064 38.8865 29.1684 38.8941 29.4444Z" fill="#2E6E85"/>
<path d="M25.079 19.9363C25.215 19.9319 25.3505 19.955 25.4774 20.0041C25.6043 20.0532 25.72 20.1273 25.8176 20.222C25.9152 20.3167 25.9928 20.4301 26.0456 20.5554C26.0984 20.6807 26.1255 20.8154 26.1251 20.9513C26.13 21.2243 26.0261 21.488 25.8364 21.6844C25.6468 21.8808 25.3867 21.9939 25.1136 21.9988C24.8405 22.0037 24.5766 21.8999 24.38 21.7104C24.1834 21.5208 24.0702 21.261 24.0654 20.988C24.0615 20.8521 24.0848 20.7168 24.1338 20.59C24.1829 20.4632 24.2568 20.3474 24.3512 20.2495C24.4456 20.1516 24.5586 20.0734 24.6835 20.0196C24.8085 19.9658 24.943 19.9375 25.079 19.9363Z" fill="#2E6E85"/>
<path d="M37.8513 19.9373C38.0563 19.9354 38.2572 19.9947 38.4284 20.1075C38.5996 20.2203 38.7332 20.3815 38.8122 20.5706C38.8912 20.7597 38.912 20.968 38.8719 21.1689C38.8318 21.3699 38.7326 21.5543 38.5871 21.6986C38.4416 21.843 38.2563 21.9407 38.0549 21.9792C37.8535 22.0178 37.6452 21.9955 37.4566 21.9152C37.268 21.8348 37.1076 21.7001 36.996 21.5282C36.8844 21.3563 36.8266 21.1551 36.83 20.9502C36.8302 20.8166 36.8567 20.6844 36.9082 20.561C36.9597 20.4377 37.035 20.3258 37.1299 20.2317C37.2248 20.1375 37.3374 20.0631 37.4612 20.0126C37.585 19.9621 37.7175 19.9365 37.8513 19.9373Z" fill="#2E6E85"/>
<path d="M21.8738 33.7271C21.8732 33.863 21.8452 33.9974 21.7915 34.1222C21.7378 34.2471 21.6596 34.3599 21.5613 34.4539C21.4631 34.5479 21.347 34.6212 21.2199 34.6694C21.0927 34.7176 20.9571 34.7398 20.8212 34.7346C20.5481 34.7296 20.2882 34.6163 20.0986 34.4198C19.909 34.2233 19.8053 33.9595 19.8103 33.6866C19.8153 33.4137 19.9286 33.1539 20.1253 32.9644C20.322 32.775 20.5859 32.6714 20.8591 32.6764C20.9951 32.6775 21.1296 32.7057 21.2546 32.7593C21.3797 32.813 21.4927 32.891 21.5872 32.9888C21.6817 33.0867 21.7557 33.2024 21.8049 33.3291C21.8541 33.4559 21.8775 33.5912 21.8738 33.7271Z" fill="#2E6E85"/>
<path d="M37.8567 26.2275C37.5871 26.2284 37.3281 26.1229 37.1359 25.9341C36.9436 25.7453 36.8337 25.4882 36.83 25.2189C36.83 25.0836 36.8567 24.9497 36.9085 24.8247C36.9603 24.6997 37.0363 24.5861 37.132 24.4905C37.2277 24.3948 37.3414 24.3189 37.4665 24.2672C37.5915 24.2154 37.7256 24.1887 37.861 24.1887C37.9964 24.1887 38.1304 24.2154 38.2555 24.2672C38.3806 24.3189 38.4942 24.3948 38.59 24.4905C38.6857 24.5861 38.7616 24.6997 38.8135 24.8247C38.8653 24.9497 38.8919 25.0836 38.8919 25.2189C38.8868 25.4893 38.7753 25.7468 38.5815 25.9356C38.3877 26.1244 38.1273 26.2292 37.8567 26.2275Z" fill="#2E6E85"/>
</svg>
