<svg width="39" height="40" viewBox="0 0 39 40" fill="none" xmlns="http://www.w3.org/2000/svg">
<path d="M0 26.9693C0.252398 26.5623 0.624888 26.4503 1.09304 26.4534C3.19975 26.4707 5.30646 26.4534 7.41215 26.4666C7.53479 26.4761 7.65775 26.4529 7.76845 26.3992C7.87914 26.3456 7.97359 26.2635 8.04212 26.1614C9.01406 24.8966 10.215 23.9229 11.8352 23.6939C13.9287 23.3978 15.7362 24.0378 17.2109 25.5794C17.3623 25.7435 17.5492 25.8709 17.7574 25.9518C19.396 26.5226 21.0335 27.0995 22.6873 27.6235C23.932 28.0183 24.9446 28.6482 25.4403 29.9506C26.6147 29.626 27.7688 29.2953 28.9301 28.99C29.9325 28.7255 30.9309 28.409 31.9517 28.2585C33.2819 28.0631 34.3943 28.7408 34.9642 29.9211C35.5341 31.1014 35.3428 32.3814 34.3668 33.3063C33.9149 33.7476 33.3806 34.0957 32.7944 34.3309C28.8375 35.7911 24.8642 37.2054 20.8869 38.6207C20.4127 38.7896 19.9109 38.8772 19.4224 39.0033H18.1309C16.5025 38.7815 15.0981 37.9807 13.6712 37.2522C12.7695 36.7923 11.8942 36.2795 11.0088 35.789C10.3871 35.4285 9.68558 35.2282 8.96724 35.206C8.84715 36.0078 8.65378 36.1706 7.863 36.1716H6.07179C6.06365 36.3283 6.05246 36.4402 6.05144 36.5522C6.03923 37.3662 5.81736 37.5839 5.00216 37.5849C3.65875 37.5849 2.31432 37.5758 0.970917 37.59C0.51599 37.59 0.18421 37.4455 0 37.0182V26.9693ZM8.93264 33.6706C10.1865 33.7245 11.2592 34.1712 12.3064 34.7512C13.7251 35.5367 15.1774 36.2622 16.6236 36.9958C17.3137 37.3458 18.0627 37.473 18.8342 37.4781C19.6056 37.4832 20.2946 37.2105 21.0009 36.9561C24.7553 35.6008 28.5189 34.2709 32.2672 32.9003C32.7037 32.7343 33.0925 32.4631 33.3989 32.1107C34.1561 31.2225 33.6025 29.8987 32.4433 29.7705C32.1282 29.743 31.8108 29.774 31.507 29.862C29.6099 30.3708 27.72 30.908 25.825 31.4239C25.7283 31.4431 25.6393 31.4897 25.5684 31.558C25.4975 31.6264 25.4477 31.7137 25.425 31.8096C24.8937 33.3958 23.2878 34.2231 21.6818 33.7428C20.9694 33.5302 20.257 33.2921 19.5445 33.0662C18.023 32.5839 16.4995 32.1046 14.979 31.6183C14.5475 31.4799 14.346 31.196 14.3745 30.8043C14.3804 30.6374 14.4448 30.4779 14.5564 30.3536C14.668 30.2294 14.8198 30.1483 14.9851 30.1246C15.1735 30.1112 15.3627 30.1369 15.5408 30.1999C16.6664 30.5478 17.789 30.9121 18.9115 31.2631C19.974 31.601 21.0345 31.9479 22.1001 32.2746C22.4216 32.3839 22.771 32.3791 23.0895 32.261C23.4079 32.143 23.676 31.9189 23.8485 31.6264C24.0294 31.3384 24.1007 30.995 24.0495 30.6588C23.9983 30.3227 23.828 30.0161 23.5697 29.7949C23.2526 29.5262 22.8881 29.3191 22.4949 29.1844C20.6427 28.5311 18.7751 27.9206 16.9229 27.2705C16.6566 27.1666 16.4203 26.9985 16.2349 26.781C15.0757 25.4491 13.6101 24.917 11.9014 25.2354C10.6099 25.4766 9.71731 26.3659 9.01101 27.4333C8.93569 27.5472 8.93671 27.7232 8.93569 27.8708C8.93569 29.2037 8.93569 30.5367 8.93569 31.8686L8.93264 33.6706ZM1.54085 36.0414H4.49736V28.0031H1.54594L1.54085 36.0414ZM6.08808 28.0031V34.6311H7.37958V28.002L6.08808 28.0031Z" fill="#2E6E85"/>
<path d="M30.03 4.96367C30.1704 4.14967 30.3444 4.01129 31.1495 4.01027H32.9529C32.9529 3.77523 32.9437 3.57681 32.9529 3.37942C32.9794 2.87982 33.2521 2.59695 33.7457 2.59492C35.2309 2.58678 36.7161 2.58678 38.2013 2.59492C38.6878 2.59492 38.9941 2.90017 38.9952 3.37942C39.0013 6.5676 39.0013 9.75308 38.9952 12.9358C38.9952 13.4446 38.6563 13.7152 38.0741 13.7152C35.9287 13.7152 33.7834 13.7234 31.638 13.7091C31.4976 13.6985 31.3568 13.7254 31.2303 13.7873C31.1038 13.8492 30.9962 13.9438 30.9184 14.0612C29.9699 15.2934 28.7812 16.1878 27.219 16.4869C26.9341 16.5517 26.641 16.5723 26.3498 16.548C25.9427 16.4971 25.6741 16.6497 25.3952 16.9346C23.0259 19.3224 20.6492 21.7027 18.265 24.0755C17.7083 24.6311 17.3327 24.6311 16.7791 24.0755L2.72419 10.0248C2.0932 9.3939 2.0932 9.109 2.72419 8.47102L10.7541 0.448995C11.3566 -0.153369 11.6701 -0.150316 12.2807 0.462223C12.9931 1.17448 13.7055 1.87554 14.4037 2.59899C14.5675 2.76789 14.7029 2.80249 14.9299 2.71905C15.972 2.32324 17.0213 1.94677 18.0706 1.56927C19.6857 0.988274 21.307 1.01778 22.8539 1.74326C24.5495 2.54099 26.1951 3.44454 27.853 4.32061C28.5329 4.68081 29.228 4.95045 30.03 4.96367ZM15.8458 4.00925C16.7964 4.96367 17.7154 5.89062 18.6426 6.80943C18.7332 6.8764 18.8374 6.92261 18.9479 6.94476C20.3605 7.39653 21.7738 7.84661 23.1877 8.29499C23.5134 8.39674 23.8462 8.4873 24.1627 8.61347C24.3436 8.68215 24.4905 8.81885 24.5719 8.99435C24.6533 9.16985 24.6628 9.37022 24.5983 9.55263C24.5384 9.72856 24.416 9.87639 24.2543 9.9681C24.0926 10.0598 23.9028 10.089 23.721 10.0502C23.5974 10.0222 23.4757 9.98615 23.3567 9.94233C21.2066 9.264 19.0558 8.58566 16.9043 7.90732C16.5894 7.79797 16.2466 7.79882 15.9323 7.90975C15.6179 8.02067 15.3506 8.23508 15.1741 8.51783C14.9866 8.8022 14.9072 9.14435 14.9503 9.48222C14.9935 9.8201 15.1563 10.1313 15.4092 10.3595C15.7093 10.6283 16.0592 10.8357 16.4392 10.97C18.3036 11.6273 20.1834 12.2399 22.0469 12.8962C22.3364 13.0115 22.5937 13.1951 22.7969 13.4314C23.9938 14.7694 25.4837 15.2944 27.218 14.919C28.4555 14.6503 29.3155 13.7814 30.0004 12.7486C30.0546 12.649 30.08 12.5362 30.0737 12.423C30.0737 10.5579 30.0737 8.69182 30.0808 6.82673C30.0808 6.5866 30.0127 6.49604 29.7633 6.47874C28.862 6.40384 27.987 6.13779 27.1966 5.69831C25.5753 4.83547 23.9541 3.96855 22.3054 3.15455C21.7692 2.88664 21.1851 2.72798 20.587 2.6878C19.989 2.64762 19.3889 2.72673 18.8217 2.92052C17.8355 3.24612 16.8697 3.63176 15.8458 4.00925ZM6.99155 12.0313L14.7395 19.7806C16.5898 18.6125 18.4726 18.6206 20.3147 19.7806L22.0448 18.0417C21.322 16.9954 21.0304 15.7107 21.2306 14.455C21.2439 14.3644 21.1136 14.1925 21.0139 14.1497C20.4816 13.9462 19.9391 13.7702 19.3987 13.5881C19.1769 13.5128 18.9509 13.4476 18.7179 13.3744C18.6599 13.5362 18.6161 13.6552 18.5744 13.7722C18.3116 14.4672 17.8748 15.0831 17.3056 15.5609C16.7364 16.0386 16.0541 16.3622 15.3239 16.5005C14.5938 16.6389 13.8403 16.5875 13.1358 16.3511C12.4312 16.1148 11.7992 15.7014 11.3003 15.1507C10.8014 14.6001 10.4524 13.9305 10.2866 13.2062C10.1209 12.4819 10.144 11.7272 10.3537 11.0145C10.5635 10.3017 10.9529 9.65472 11.4845 9.1356C12.0162 8.61647 12.6723 8.24258 13.39 8.04977C13.5837 7.98418 13.7514 7.85831 13.8684 7.69059C14.2758 7.0713 14.8883 6.61523 15.5985 6.40243L15.855 6.32204L14.2765 4.74491C12.4334 5.90792 10.5475 5.88553 8.73492 4.74491L7.00478 6.48586C8.15583 8.3245 8.14973 10.1947 6.9946 12.0313H6.99155ZM37.4523 12.1737V4.13542H34.5009V12.1737H37.4523ZM13.4338 9.70119C12.2542 10.0563 11.4797 11.5022 11.7444 12.8107C12.0263 14.2087 13.3727 15.2171 14.7477 15.0665C16.0249 14.9271 17.2126 13.8597 17.1902 12.828C15.4988 12.3437 13.8165 11.7932 13.4409 9.70119H13.4338ZM31.6024 12.1747H32.9152V5.56095H31.6024V12.1747ZM19.186 20.8897C18.0594 20.2904 16.947 20.2792 15.8804 20.8734L17.5393 22.536C18.0655 22.0201 18.6171 21.4697 19.1962 20.8897H19.186ZM5.83133 10.9507C6.501 9.98303 6.48777 8.32348 5.78146 7.53797C5.50973 7.82287 5.24614 8.11387 4.96728 8.38758C4.68842 8.66129 4.37597 8.93093 4.05539 9.21889C4.65382 9.81108 5.18507 10.3381 5.71633 10.8611C5.75262 10.8935 5.79104 10.9234 5.83133 10.9507ZM13.1967 3.56155C13.1417 3.49745 13.0949 3.42927 13.0308 3.36822C12.5362 2.86659 12.0395 2.367 11.495 1.81754C11.1897 2.13297 10.9342 2.42194 10.6574 2.69565C10.3806 2.96936 10.0753 3.2451 9.76996 3.52492C10.6859 4.23107 12.3224 4.23107 13.1967 3.56155ZM24.0101 16.1562L22.6249 15.4145L23.1338 17.0018L24.0101 16.1562Z" fill="#2E6E85"/>
<path d="M12.3909 29.2504C12.5896 29.2495 12.7809 29.3256 12.9246 29.4628C13.0683 29.6 13.1531 29.7876 13.1613 29.9861C13.1602 30.1915 13.0786 30.3883 12.934 30.5343C12.7894 30.6802 12.5933 30.7636 12.3878 30.7665C12.1894 30.7604 12.0011 30.6774 11.8628 30.5349C11.7245 30.3925 11.6471 30.2019 11.6469 30.0034C11.6456 29.9049 11.6638 29.8071 11.7006 29.7158C11.7374 29.6244 11.792 29.5413 11.8612 29.4712C11.9305 29.4011 12.0129 29.3455 12.1039 29.3076C12.1948 29.2697 12.2924 29.2503 12.3909 29.2504Z" fill="#2E6E85"/>
<path d="M27.3579 10.1956C27.3565 10.2939 27.3354 10.391 27.2961 10.4811C27.2567 10.5712 27.1998 10.6526 27.1287 10.7205C27.0575 10.7885 26.9736 10.8415 26.8817 10.8766C26.7898 10.9118 26.6919 10.9283 26.5936 10.9251C26.4933 10.9246 26.3942 10.9041 26.302 10.8647C26.2098 10.8254 26.1264 10.768 26.0567 10.6959C25.9871 10.6239 25.9325 10.5386 25.8962 10.4452C25.86 10.3518 25.8427 10.252 25.8456 10.1518C25.8484 10.0517 25.8713 9.95306 25.9128 9.86183C25.9543 9.77061 26.0137 9.6886 26.0873 9.62063C26.161 9.55266 26.2475 9.5001 26.3418 9.46603C26.4361 9.43197 26.5362 9.4171 26.6363 9.42229C26.7347 9.4249 26.8316 9.44706 26.9214 9.4875C27.0112 9.52793 27.092 9.58582 27.1592 9.6578C27.2263 9.72977 27.2785 9.81439 27.3126 9.90672C27.3467 9.99905 27.3621 10.0972 27.3579 10.1956Z" fill="#2E6E85"/>
</svg>
