<svg width="46" height="36" viewBox="0 0 46 36" fill="none" xmlns="http://www.w3.org/2000/svg">
<path d="M13.3592 0.558594C7.11426 2.16664 2.16664 7.11399 0.558594 13.3589L2.57781 13.8781C3.9956 8.36894 8.36922 3.99533 13.8781 2.57781L13.3592 0.558594Z" fill="#2E6E85"/>
<path d="M32.9966 13.8776L35.0158 13.3584C33.4077 7.1135 28.4601 2.16615 22.2152 0.558105L21.6963 2.57732C27.2054 3.99484 31.5788 8.36846 32.9966 13.8776Z" fill="#2E6E85"/>
<path d="M22.2145 35.014C28.4594 33.4068 33.407 28.4605 35.0151 22.2145L32.9959 21.6953C31.5781 27.2055 27.2045 31.5781 21.6953 32.9948L22.2145 35.014Z" fill="#2E6E85"/>
<path d="M2.57683 21.6953L0.557617 22.2145C2.16566 28.4605 7.11329 33.407 13.3582 35.014L13.8771 32.9948C8.36797 31.5781 3.99463 27.2055 2.57683 21.6953Z" fill="#2E6E85"/>
<path d="M17.7871 14.6602C16.0629 14.6602 14.6602 16.0629 14.6602 17.7871C14.6602 19.5116 16.0629 20.9141 17.7871 20.9141C19.5113 20.9141 20.9141 19.5116 20.9141 17.7871C20.9141 16.0629 19.5113 14.6602 17.7871 14.6602ZM18.8294 18.8294H16.7448V16.7448H18.8294V18.8294Z" fill="#2E6E85"/>
<path d="M17.7865 0L13.7836 13.7836L0 17.7862L13.7836 21.7883L17.7865 35.5729L21.7894 21.7883L35.5729 17.7862L21.7894 13.7836L17.7865 0ZM17.7865 22.9971C14.9134 22.9971 12.5756 20.6595 12.5756 17.7862C12.5756 14.9132 14.9134 12.5753 17.7865 12.5753C20.6595 12.5753 22.9974 14.9132 22.9974 17.7862C22.9974 20.6595 20.6595 22.9971 17.7865 22.9971Z" fill="#2E6E85"/>
<path d="M35.5727 17.7868L21.7891 21.7889C21.7891 21.7889 22.9052 19.6222 22.9939 18.1429C23.0904 16.5357 22.3584 14.8774 21.9909 14.1564C21.8704 13.9199 21.7891 13.7842 21.7891 13.7842L35.5727 17.7868Z" fill="#CC9018"/>
<path d="M25.6442 12.7388L28.4549 7.11816L22.834 9.92809L23.4691 12.1039L25.6442 12.7388Z" fill="#2E6E85"/>
<path d="M23.4699 23.4699L22.835 25.6452L28.4556 28.4553L25.6449 22.835L23.4699 23.4699Z" fill="#2E6E85"/>
<path d="M9.9289 22.835L7.11816 28.4553L12.7388 25.6449L12.1039 23.4699L9.9289 22.835Z" fill="#2E6E85"/>
<path d="M12.1049 12.1049L12.7401 9.92906L7.11914 7.11914L9.92988 12.7398L12.1049 12.1049Z" fill="#2E6E85"/>
<path d="M44.6143 19.2472C44.4777 20.0365 44.1476 20.6512 43.6239 21.0913C43.1079 21.5239 42.4742 21.7402 41.7229 21.7402C40.8729 21.7402 40.1748 21.467 39.6284 20.9206C39.2641 20.5487 39.0364 20.1465 38.9454 19.7139C38.8543 19.2738 38.8088 18.5756 38.8088 17.6194C38.8088 16.6632 38.8543 15.9688 38.9454 15.5363C39.0364 15.0961 39.2641 14.6901 39.6284 14.3182C40.1748 13.7718 40.8729 13.4986 41.7229 13.4986C42.4818 13.4986 43.1155 13.7187 43.6239 14.1589C44.14 14.5914 44.4701 15.2023 44.6143 15.9916H43.3621C43.271 15.559 43.0851 15.2175 42.8043 14.9671C42.5235 14.7167 42.1631 14.5914 41.7229 14.5914C41.2372 14.5914 40.8388 14.7584 40.5277 15.0923C40.3228 15.3048 40.1899 15.578 40.1292 15.9119C40.0685 16.2382 40.0382 16.8074 40.0382 17.6194C40.0382 18.4314 40.0685 19.0044 40.1292 19.3383C40.1899 19.6646 40.3228 19.934 40.5277 20.1465C40.8388 20.4804 41.2372 20.6474 41.7229 20.6474C42.1631 20.6474 42.5235 20.5222 42.8043 20.2717C43.0927 20.0213 43.2862 19.6798 43.3849 19.2472H44.6143Z" fill="#2E6E85"/>
</svg>
