<svg width="39" height="39" viewBox="0 0 39 39" fill="none" xmlns="http://www.w3.org/2000/svg">
<mask id="mask0_1000_42048" style="mask-type:alpha" maskUnits="userSpaceOnUse" x="0" y="0" width="39" height="39">
<path d="M0 7.35632C0 3.29354 3.29354 0 7.35632 0H39V31.6437C39 35.7065 35.7065 39 31.6437 39H0V7.35632Z" fill="#D9D9D9"/>
</mask>
<g mask="url(#mask0_1000_42048)">
<path d="M26.9756 -25.2158L39.3912 -12.8002L-14.2575 40.8485L-26.6731 28.4329L26.9756 -25.2158Z" fill="white"/>
<path d="M39.3916 -12.7998L51.8072 -0.384162L-1.84146 53.2645L-14.2571 40.8489L39.3916 -12.7998Z" fill="#0039A5"/>
<path d="M51.8066 -0.384277L64.2223 12.0314L10.5736 65.6801L-1.84206 53.2644L51.8066 -0.384277Z" fill="#D52A1D"/>
</g>
<path d="M4.63184 10.9827H6.02373C6.19856 11.6618 6.60873 12.0014 7.25425 12.0014C7.63753 12.0014 7.94347 11.8703 8.17209 11.6081C8.29313 11.4736 8.37718 11.3088 8.42425 11.1138C8.47804 10.9121 8.51166 10.5961 8.52511 10.1657H6.29606V8.9453H8.52511C8.51166 8.5284 8.47804 8.22245 8.42425 8.02745C8.37718 7.83245 8.29313 7.66771 8.17209 7.53323C7.94347 7.27099 7.63753 7.13987 7.25425 7.13987C6.92477 7.13987 6.6558 7.234 6.44735 7.42228C6.24563 7.60383 6.10778 7.84926 6.03382 8.15857H4.63184C4.75287 7.43909 5.04873 6.88771 5.51942 6.50443C5.99684 6.11443 6.57847 5.91943 7.26434 5.91943C8.02416 5.91943 8.66296 6.17159 9.18072 6.6759C9.5102 7.00538 9.71192 7.36849 9.78589 7.76521C9.86658 8.15521 9.90692 8.75702 9.90692 9.57064C9.90692 10.3843 9.86658 10.9894 9.78589 11.3862C9.71192 11.7762 9.5102 12.1359 9.18072 12.4654C8.66296 12.9697 8.02416 13.2218 7.26434 13.2218C6.57847 13.2218 5.99684 13.0302 5.51942 12.6469C5.04873 12.2569 4.75287 11.7022 4.63184 10.9827Z" fill="black"/>
<path d="M18.8692 23.8683C18.1967 23.8683 17.6218 23.6767 17.1444 23.2934C16.6737 22.9034 16.3779 22.3487 16.2568 21.6292H17.6487C17.8303 22.3083 18.2405 22.6479 18.8792 22.6479C19.2289 22.6479 19.508 22.5605 19.7164 22.3857C19.9249 22.2041 20.0291 21.9688 20.0291 21.6796C20.0291 21.3703 19.9349 21.1316 19.7467 20.9635C19.5651 20.7954 19.2961 20.7113 18.9398 20.7113H18.0118V19.5615H18.9499C19.2592 19.5615 19.4979 19.4842 19.666 19.3295C19.8408 19.1682 19.9282 18.9429 19.9282 18.6538C19.9282 18.3781 19.8341 18.1629 19.6458 18.0082C19.4575 17.8469 19.2054 17.7662 18.8893 17.7662C18.5599 17.7662 18.2909 17.8637 18.0824 18.0587C17.8807 18.247 17.7429 18.4957 17.6689 18.8051H16.2669C16.388 18.0856 16.6838 17.5342 17.1545 17.1509C17.6319 16.7609 18.2136 16.5659 18.8994 16.5659C19.6122 16.5659 20.1938 16.7475 20.6443 17.1106C21.1016 17.4737 21.3302 17.9545 21.3302 18.5529C21.3302 19.2455 21.0175 19.7599 20.3922 20.0961C21.0848 20.4054 21.4311 20.9501 21.4311 21.7301C21.4311 22.3756 21.1924 22.8933 20.7149 23.2833C20.2375 23.6733 19.6223 23.8683 18.8692 23.8683Z" fill="white"/>
<path d="M33.7405 34.4543H32.3385V29.8449L29.5446 34.4543H28.2939V27.2729H29.6959V31.8723L32.4898 27.2729H33.7405V34.4543Z" fill="white"/>
<path d="M0.5 7.35632C0.5 3.56968 3.56968 0.5 7.35632 0.5H38.5V31.6437C38.5 35.4303 35.4303 38.5 31.6437 38.5H0.5V7.35632Z" stroke="white"/>
</svg>
